<?xml version="1.0" standalone="no"?>
<!DOCTYPE svg PUBLIC "-//W3C//DTD SVG 20010904//EN"
 "http://www.w3.org/TR/2001/REC-SVG-20010904/DTD/svg10.dtd">
<svg version="1.0" xmlns="http://www.w3.org/2000/svg"
 width="1000.000000pt" height="1000.000000pt" viewBox="0 0 1000.000000 1000.000000"
 preserveAspectRatio="xMidYMid meet">
<metadata>
Created by potrace 1.11, written by Peter Selinger 2001-2013
</metadata>
<g transform="translate(0.000000,1000.000000) scale(0.100000,-0.100000)"
fill="#000000" stroke="none">
<path d="M4475 9603 c-336 -5 -702 -44 -1053 -112 -72 -14 -301 -69 -332 -80
-14 -5 -45 -14 -70 -21 -25 -7 -104 -32 -176 -56 -752 -250 -1384 -688 -1836
-1274 -188 -243 -397 -622 -503 -910 -150 -409 -226 -755 -270 -1229 -27 -286
-24 -793 5 -1051 25 -213 29 -241 62 -425 42 -232 161 -647 228 -790 5 -11 19
-45 31 -75 11 -30 49 -111 83 -180 184 -368 368 -627 661 -930 83 -85 179
-191 215 -235 60 -73 245 -262 386 -395 33 -30 120 -120 194 -199 418 -448
951 -778 1610 -999 74 -25 149 -48 165 -52 17 -5 91 -24 165 -43 243 -63 570
-117 890 -149 174 -17 806 -17 990 0 235 22 481 56 640 89 41 8 95 19 120 24
60 10 326 82 420 112 107 35 340 123 375 141 17 9 34 16 39 16 18 0 346 165
451 227 452 267 858 642 1136 1053 349 513 559 1088 649 1775 25 187 49 610
44 770 -12 412 -26 575 -79 875 -20 112 -38 207 -40 210 -2 4 -11 39 -19 79
-29 139 -126 431 -204 617 -53 126 -179 378 -212 424 -11 16 -20 31 -20 34 0
3 -13 24 -29 48 -15 24 -49 75 -74 113 -154 232 -348 452 -617 701 -96 88
-359 367 -433 459 -69 87 -294 318 -393 406 -333 292 -743 536 -1189 704 -290
110 -514 171 -890 245 -66 13 -411 57 -500 64 -38 3 -151 8 -250 11 -99 3
-193 7 -210 8 -16 1 -88 1 -160 0z m285 -674 c80 -1 155 -6 167 -10 32 -12 45
-42 29 -65 -12 -16 -27 -18 -137 -15 -265 7 -268 7 -289 26 -25 23 -25 30 1
56 16 16 29 19 52 15 18 -3 97 -6 177 -7z m-72 -345 c42 -9 99 -28 127 -42 67
-36 153 -125 193 -200 l33 -61 -38 15 c-28 12 -60 15 -124 12 -139 -7 -234
-67 -296 -188 -25 -49 -28 -65 -28 -155 0 -90 3 -105 28 -153 79 -150 240
-221 407 -178 70 18 148 70 183 122 l23 33 38 -122 c34 -112 70 -227 148 -477
16 -52 34 -111 40 -130 6 -19 16 -53 23 -75 7 -22 30 -94 50 -160 20 -66 45
-145 54 -175 10 -30 26 -82 36 -115 10 -33 30 -98 45 -145 15 -47 38 -119 50
-160 12 -41 39 -129 60 -195 60 -190 65 -234 65 -570 0 -305 -6 -371 -50 -585
-114 -544 -371 -923 -734 -1080 -134 -58 -223 -81 -368 -95 -220 -21 -440 14
-627 99 -210 96 -405 298 -533 551 -119 236 -204 552 -208 775 -2 131 -9 178
-37 270 -11 36 -30 99 -43 140 -44 145 -97 316 -126 415 -17 55 -41 134 -54
175 -13 41 -35 116 -50 165 -15 50 -35 115 -45 145 -10 30 -37 118 -60 195
-23 77 -48 158 -55 180 -45 137 -59 185 -55 189 3 2 30 -2 60 -10 70 -18 114
-18 180 2 98 29 181 100 222 189 32 70 32 218 1 287 -42 92 -125 163 -223 192
-72 21 -125 20 -205 -5 -57 -17 -78 -31 -131 -82 l-63 -62 -5 29 c-10 47 -7
161 5 218 15 68 58 151 106 201 102 108 455 323 694 422 276 115 579 185 882
204 206 13 323 12 405 -5z m-1930 -336 c29 -29 13 -57 -69 -121 -44 -34 -112
-88 -152 -119 -75 -61 -109 -71 -127 -38 -15 28 -1 49 67 100 32 24 92 71 133
105 106 87 125 96 148 73z m2260 -24 c49 -24 64 -45 42 -59 -5 -3 -43 6 -85
20 -41 14 -82 25 -89 25 -17 0 -38 24 -29 33 17 17 111 6 161 -19z m-2032
-619 c60 -18 115 -60 96 -73 -9 -6 -49 2 -110 21 -53 17 -99 32 -101 33 -2 2
-1 10 2 19 8 19 49 19 113 0z"/>
<path d="M3834 7821 c-71 -24 -114 -57 -114 -87 0 -31 19 -31 69 0 46 29 102
46 157 46 49 0 74 21 54 45 -17 20 -101 18 -166 -4z"/>
<path d="M3902 7549 c-40 -16 -64 -35 -102 -80 -43 -52 -130 -188 -130 -203 0
-4 -17 -43 -39 -89 -21 -45 -53 -113 -71 -152 -45 -96 -152 -195 -290 -268
-96 -52 -126 -96 -97 -141 23 -34 57 -36 160 -10 51 13 133 31 182 40 229 39
294 40 344 3 18 -13 86 -85 152 -160 182 -209 239 -244 333 -205 25 10 40 28
59 67 26 53 35 100 72 374 9 66 23 130 31 143 35 54 198 142 429 232 128 49
145 62 145 105 0 56 -13 60 -219 60 -223 0 -234 3 -434 123 -169 101 -244 138
-331 163 -88 24 -127 23 -194 -2z"/>
<path d="M5144 7335 c-3 -8 1 -36 10 -62 9 -25 16 -59 16 -74 0 -36 24 -56 46
-38 32 27 -8 189 -47 189 -11 0 -22 -7 -25 -15z"/>
<path d="M3014 6674 c-14 -54 42 -174 81 -174 22 0 18 35 -11 109 -38 97 -58
114 -70 65z"/>
<path d="M5368 5652 c-3 -11 9 -50 28 -88 43 -91 49 -144 15 -144 -18 0 -131
114 -131 132 0 4 -11 8 -25 8 -41 0 -32 -40 25 -108 61 -73 89 -92 134 -92 83
0 99 103 37 234 -18 36 -36 66 -41 66 -4 0 -15 3 -23 6 -9 3 -16 -2 -19 -14z"/>
<path d="M3650 5325 c-17 -21 -5 -141 20 -198 24 -53 47 -75 88 -83 23 -5 32
-13 37 -33 15 -71 86 -129 140 -115 34 8 50 43 64 131 14 93 14 123 -1 123
-30 -1 -41 -22 -55 -101 -8 -46 -18 -88 -24 -93 -13 -14 -56 30 -70 71 -6 19
-8 49 -4 66 14 66 22 212 12 224 -18 24 -47 -4 -47 -46 0 -57 -18 -144 -34
-159 -30 -31 -76 67 -76 162 0 19 -8 40 -19 50 -16 15 -19 15 -31 1z"/>
<path d="M4644 4641 c1 -71 -2 -82 -23 -105 -14 -14 -32 -26 -40 -26 -27 0
-80 38 -100 72 -37 63 -64 76 -76 38 -12 -39 68 -138 129 -157 32 -10 37 -16
60 -83 32 -92 102 -145 164 -125 31 9 60 81 66 159 3 49 9 72 20 78 39 22 86
185 58 202 -22 13 -40 -7 -55 -62 -9 -31 -22 -65 -30 -75 -13 -18 -14 -18 -44
7 -17 14 -44 55 -59 91 -22 51 -33 65 -50 65 -20 0 -21 -5 -20 -79z m119 -141
c6 0 7 -24 3 -62 -8 -72 -24 -128 -36 -128 -27 0 -45 20 -71 74 -33 70 -35 82
-14 90 9 3 25 21 36 40 l20 34 26 -24 c14 -13 30 -24 36 -24z"/>
</g>
</svg>
